<svg xmlns="http://www.w3.org/2000/svg" xmlns:xlink="http://www.w3.org/1999/xlink" width="309" height="46" viewBox="0 0 309 46">
  <defs>
    <path id="a" d="M14.294 11.51V.9H.5v10.61h13.794z"/>
    <path id="c" d="M34.617.207H.157v44.728h34.46V.207z"/>
    <path id="e" d="M34.46.207H0v44.728h34.46V.207z"/>
  </defs>
  <g fill="none" fill-rule="evenodd">
    <path fill="#003552" d="M281.29 13.102v5.83a.37.37 0 0 1-.37.37h-1.25a.37.37 0 0 1-.37-.37v-4.54c0-.204-.143-.283-.317-.178l-.5.306a.36.36 0 0 1-.5-.126l-.625-1.076a.387.387 0 0 1 .128-.516l6.41-4.03a.643.643 0 0 1 .624 0l6.403 4.03a.386.386 0 0 1 .127.516l-.624 1.076a.36.36 0 0 1-.5.126l-.5-.305c-.174-.106-.316-.027-.316.177v4.54a.37.37 0 0 1-.37.37h-1.252a.37.37 0 0 1-.37-.37V13.1a.755.755 0 0 0-.31-.57l-2.293-1.46a.634.634 0 0 0-.623 0l-2.29 1.46a.753.753 0 0 0-.31.57"/>
    <path fill="#003552" d="M285.24 13.423v1.028a.37.37 0 0 1-.37.37h-1.332a.37.37 0 0 1-.37-.37v-1.027c0-.203.166-.37.37-.37h1.332c.204 0 .37.167.37.37m7.562 15.446c-5.346-.007-9.633-4.198-9.633-9.367v-1.73l-.003-.01v-1.03c0-.204.167-.37.37-.37h1.333c.204 0 .373.167.373.37v2.77c0 4.025 3.4 7.383 7.56 7.383v.004c4.163-.003 7.558-3.36 7.558-7.384v-2.773a.37.37 0 0 1 .37-.37h1.336a.37.37 0 0 1 .37.37l.002 2.772c0 5.172-4.288 9.364-9.636 9.364m7.558-14.42v-1.026a.37.37 0 0 1 .37-.37h1.333c.203 0 .37.166.37.37v1.027c0 .205-.167.37-.37.37h-1.334a.37.37 0 0 1-.37-.37"/>
    <g transform="translate(294 7.793)">
      <mask id="b" fill="#fff">
        <use xlink:href="#a"/>
      </mask>
      <path fill="#003552" d="M13.62 6.602a.36.36 0 0 1-.5.127l-.502-.307c-.173-.107-.315-.027-.315.177v4.54a.37.37 0 0 1-.37.37H10.68a.37.37 0 0 1-.37-.37V5.31a.753.753 0 0 0-.312-.568L7.71 3.28a.63.63 0 0 0-.624 0L4.793 4.74a.754.754 0 0 0-.312.568v5.83a.37.37 0 0 1-.368.37H2.858a.37.37 0 0 1-.37-.37V6.6c0-.203-.14-.283-.315-.176l-.498.305a.358.358 0 0 1-.5-.127L.55 5.526a.386.386 0 0 1 .127-.516L7.08.98a.645.645 0 0 1 .626 0l6.41 4.03c.172.108.23.34.127.516l-.624 1.076z" mask="url(#b)"/>
    </g>
    <g transform="translate(153 .793)">
      <mask id="d" fill="#fff">
        <use xlink:href="#c"/>
      </mask>
      <path fill="#003552" d="M17.682 37.736c5.9 0 9.678-5.31 9.678-10.268 0-5.37-4.13-10.267-9.678-10.267-5.842 0-9.678 5.43-9.678 10.033 0 6.078 4.544 10.503 9.678 10.503zm16.935 6.137h-7.2V39.86H27.3c-1.475 2.36-4.897 5.074-10.444 5.074-8.32 0-16.7-6.845-16.7-17.407C.156 16.492 9.006 10 16.856 10c4.78 0 7.61 1.594 9.913 4.014V.207h7.847v43.666z" mask="url(#d)"/>
    </g>
    <path fill="#003552" d="M255.08 11.917h7.198v2.89h.118c1.475-2.123 2.95-4.012 7.022-4.012h.65v7.613c-7.14.295-7.14 5.9-7.14 7.848v18.41h-7.85v-32.75zM121.748 37.592l15.136-14.104c4.184-3.898 4.7-6.42 4.7-8.37 0-4.472-3.324-6.363-6.19-6.363-2.982 0-4.817 1.89-5.676 3.44-.746 1.433-.803 3.095-.803 4.758h-7.568c-.057-.574-.057-.918-.057-1.376 0-6.708 5.103-14.046 13.93-14.046 8.658 0 13.99 6.995 13.99 13.93 0 4.36-1.662 8.66-8.198 14.45l-8.6 7.682h16.798v7.224h-27.462v-7.224zM234.845 10.86c-4.433 0-8.56 1.716-11.697 4.554 2.414 3.092 3.398 5.96 3.738 7.19 1.952-3.006 5.27-4.545 7.96-4.545 4.896 0 9.5 4.425 9.5 10.384 0 5.193-3.777 10.15-9.5 10.15-4.958 0-9.62-4.012-9.62-10.21 0-.092.006-.183.008-.275l-.003.01c.015-5.74-3.1-9.87-3.896-10.83a17.384 17.384 0 0 0-3.956 11.095c0 9.383 7.73 17.408 17.467 17.408 9.087 0 17.35-6.786 17.35-17.525 0-10.032-8.086-17.408-17.35-17.408"/>
    <path fill="#003552" d="M207.838 10.86c-9.382 0-17.467 7.612-17.467 17.525 0 9.383 7.732 17.408 17.468 17.408 4.298 0 8.4-1.534 11.54-4.27-2.466-2.976-3.536-5.77-3.92-6.996-1.652 2.404-4.308 4.067-7.62 4.067-4.957 0-9.618-4.012-9.618-10.21 0-6.843 5.547-10.325 9.618-10.325 4.897 0 9.5 4.425 9.5 10.384 0 .14-.004.28-.01.418.28 6.138 3.533 9.978 4.077 10.58 2.338-2.9 3.782-6.69 3.782-11.174 0-10.032-8.084-17.408-17.35-17.408"/>
    <g transform="translate(0 .793)">
      <mask id="f" fill="#fff">
        <use xlink:href="#e"/>
      </mask>
      <path fill="#003552" d="M17.526 37.736c5.9 0 9.678-5.31 9.678-10.268 0-5.37-4.13-10.267-9.678-10.267-5.842 0-9.678 5.43-9.678 10.033 0 6.078 4.544 10.503 9.678 10.503zm16.935 6.137h-7.2V39.86h-.116c-1.474 2.36-4.897 5.074-10.444 5.074C8.38 44.934 0 38.09 0 27.528c0-11.035 8.85-17.526 16.7-17.526 4.78 0 7.61 1.593 9.913 4.013V.207h7.848v43.666z" mask="url(#f)"/>
    </g>
    <path fill="#003552" d="M101.923 11.917h7.2v2.89h.117c1.476-2.123 2.95-4.012 7.022-4.012h.65v7.613c-7.14.295-7.14 5.9-7.14 7.848v18.41h-7.85v-32.75zM81.69 10.86c-4.434 0-8.56 1.716-11.698 4.554 2.414 3.092 3.4 5.96 3.738 7.19 1.952-3.006 5.27-4.545 7.96-4.545 4.896 0 9.5 4.425 9.5 10.384 0 5.193-3.777 10.15-9.5 10.15-4.958 0-9.62-4.012-9.62-10.21 0-.092.006-.183.008-.275l-.003.01c.014-5.74-3.1-9.87-3.897-10.83a17.384 17.384 0 0 0-3.956 11.095c0 9.383 7.73 17.408 17.467 17.408 9.086 0 17.348-6.786 17.348-17.525 0-10.032-8.085-17.408-17.35-17.408"/>
    <path fill="#003552" d="M54.682 10.86c-9.382 0-17.467 7.612-17.467 17.525 0 9.383 7.73 17.408 17.467 17.408 4.3 0 8.4-1.534 11.54-4.27-2.466-2.976-3.536-5.77-3.92-6.996-1.652 2.404-4.307 4.067-7.62 4.067-4.957 0-9.618-4.012-9.618-10.21 0-6.843 5.547-10.325 9.618-10.325 4.897 0 9.5 4.425 9.5 10.384 0 .14-.004.28-.01.418.28 6.138 3.533 9.978 4.077 10.58 2.337-2.9 3.78-6.69 3.78-11.174 0-10.032-8.083-17.408-17.35-17.408"/>
  </g>
</svg>
